<svg width="767" height="818" viewBox="0 0 767 818" fill="none" xmlns="http://www.w3.org/2000/svg">
<path d="M336.403 49.5556C351.15 -1.3826 415.359 -18.5874 430.106 24.448L486.754 189.764C493.349 209.01 512.263 218.169 533.605 212.451L716.922 163.331C764.643 150.544 784.485 208.448 745.877 247.832L597.571 399.123C580.305 416.736 573.08 441.692 579.675 460.938L636.323 626.254C651.07 669.289 599.124 722.281 560.517 703.586L412.21 631.773C394.944 623.412 371.565 629.677 354.299 647.29L205.992 798.581C167.385 837.965 115.439 812.812 130.186 761.873L186.834 566.199C193.428 543.419 186.204 522.335 168.938 513.975L20.6315 442.161C-17.9759 423.467 1.86557 354.93 49.587 342.143L232.904 293.023C254.246 287.305 273.16 268.01 279.755 245.229L336.403 49.5556Z" fill="#8693FF"/>
</svg>
