<svg width="22" height="20" viewBox="0 0 22 20" fill="none" xmlns="http://www.w3.org/2000/svg">
<path d="M10.0488 0.927068C10.3482 0.00575757 11.6516 0.00575513 11.9509 0.927066L13.694 6.29181C13.8279 6.70383 14.2119 6.98279 14.6451 6.98279H20.2859C21.2547 6.98279 21.6574 8.22241 20.8737 8.79181L16.3102 12.1074C15.9597 12.3621 15.813 12.8134 15.9469 13.2254L17.69 18.5902C17.9894 19.5115 16.9349 20.2776 16.1512 19.7082L11.5877 16.3926C11.2372 16.138 10.7626 16.138 10.4121 16.3926L5.84857 19.7082C5.06486 20.2776 4.01038 19.5115 4.30973 18.5902L6.05284 13.2254C6.18671 12.8134 6.04006 12.3621 5.68957 12.1074L1.12605 8.79181C0.342332 8.22241 0.745107 6.98279 1.71383 6.98279H7.35466C7.78788 6.98279 8.17184 6.70383 8.30571 6.29181L10.0488 0.927068Z" fill="#F8F8F8"/>
</svg>
